HIERARCHY
ROOT Hips
{
  OFFSET 50.0889 49.3973 -7.04331
  CHANNELS 6 Xposition Yposition Zposition Zrotation Xrotation Yrotation
  JOINT spine
  {
    OFFSET 0 6.24479 0.359107
    CHANNELS 3 Zrotation Xrotation Yrotation
    JOINT spine1
    {
      OFFSET 0 9.06941 0
      CHANNELS 3 Zrotation Xrotation Yrotation
      JOINT spine2
      {
        OFFSET 0 8.69014 0
        CHANNELS 3 Zrotation Xrotation Yrotation
        JOINT Neck
        {
          OFFSET 0 22.3112 1.06372
          CHANNELS 3 Zrotation Xrotation Yrotation
          JOINT Head
          {
            OFFSET 0 6.74081 0
            CHANNELS 3 Zrotation Xrotation Yrotation
            End Site
            {
              OFFSET 0 16.3165 -5.38097
            }
          }
        }
        JOINT RightShoulder
        {
          OFFSET -3.65916 9.38468 -0.509514
          CHANNELS 3 Zrotation Xrotation Yrotation
          JOINT RightArm
          {
            OFFSET 0 12.3089 0
            CHANNELS 3 Zrotation Xrotation Yrotation
            JOINT RightArmRoll
            {
              OFFSET 0 6.21375 0
              CHANNELS 3 Zrotation Xrotation Yrotation
              JOINT RightForeArm
              {
                OFFSET 0 18.0985 0
                CHANNELS 3 Zrotation Xrotation Yrotation
                JOINT RightForeArmRoll
                {
                  OFFSET 0 6.9728 0
                  CHANNELS 3 Zrotation Xrotation Yrotation
                  JOINT RightHand
                  {
                    OFFSET 0 13.9929 0
                    CHANNELS 3 Zrotation Xrotation Yrotation
                    End Site
                    {
                      OFFSET 0 0 0
                    }
                  }
                }
              }
            }
          }
        }
        JOINT LeftShoulder
        {
          OFFSET 3.65916 9.38468 -0.509514
          CHANNELS 3 Zrotation Xrotation Yrotation
          JOINT LeftArm
          {
            OFFSET 0 12.3089 0
            CHANNELS 3 Zrotation Xrotation Yrotation
            JOINT LeftArmRoll
            {
              OFFSET 0 6.21375 0
              CHANNELS 3 Zrotation Xrotation Yrotation
              JOINT LeftForeArm
              {
                OFFSET 0 18.0985 0
                CHANNELS 3 Zrotation Xrotation Yrotation
                JOINT LeftForeArmRoll
                {
                  OFFSET 0 6.97279 0
                  CHANNELS 3 Zrotation Xrotation Yrotation
                  JOINT LeftHand
                  {
                    OFFSET 0 13.9929 0
                    CHANNELS 3 Zrotation Xrotation Yrotation
                    End Site
                    {
                      OFFSET 0 0 0
                    }
                  }
                }
              }
            }
          }
        }
      }
    }
  }
  JOINT RightUpLeg
  {
    OFFSET -5.53515 -1.015 -0.851454
    CHANNELS 3 Zrotation Xrotation Yrotation
    JOINT RightUpLegRoll
    {
      OFFSET 0 16.4075 0
      CHANNELS 3 Zrotation Xrotation Yrotation
      JOINT RightLeg
      {
        OFFSET 0 -20.3181 0
        CHANNELS 3 Zrotation Xrotation Yrotation
        JOINT RightLegRoll
        {
          OFFSET 0 20.3846 0
          CHANNELS 3 Zrotation Xrotation Yrotation
          JOINT RightFoot
          {
            OFFSET 0 16.9668 0
            CHANNELS 3 Zrotation Xrotation Yrotation
            JOINT RightToeBase
            {
              OFFSET 0 14.1834 0
              CHANNELS 3 Zrotation Xrotation Yrotation
              End Site
              {
                OFFSET 0.0060118 6.8689 -0.791745
              }
            }
          }
        }
      }
    }
  }
  JOINT LeftUpLeg
  {
    OFFSET 5.53515 -1.015 -0.851454
    CHANNELS 3 Zrotation Xrotation Yrotation
    JOINT LeftUpLegRoll
    {
      OFFSET 0 16.4076 0
      CHANNELS 3 Zrotation Xrotation Yrotation
      JOINT LeftLeg
      {
        OFFSET 0 20.3181 0
        CHANNELS 3 Zrotation Xrotation Yrotation
        JOINT LeftLegRoll
        {
          OFFSET 0 20.5731 0
          CHANNELS 3 Zrotation Xrotation Yrotation
          JOINT LeftFoot
          {
            OFFSET 0 16.7783 0
            CHANNELS 3 Zrotation Xrotation Yrotation
            JOINT LeftToeBase
            {
              OFFSET 0 14.1834 0
              CHANNELS 3 Zrotation Xrotation Yrotation
              End Site
              {
                OFFSET -0.0269423 6.86889 -0.791746
              }
            }
          }
        }
      }
    }
  }
}
MOTION
Frames: 9
Frame Time: 0.00208333
49.2585 61.828 2.85615 4.82643 45.5826 -6.8579 0.906285 1.16553 0.0595666 1.81991 6.33401 -0.0138102 1.82412 7.97863 -0.0444652 -9.44749 27.0713 -3.09003 13.209 3.5983 -6.52573 35.6644 -5.45485 -1.74778 141.042 14.3098 -46.7702 -1.56411e-006 3.4946e-007 8.63932e-006 85.8764 85.3562 -88.338 -7.60269e-006 -8.88278e-007 -3 8.0289 -4.95145 0.697695 -67.7865 -0.254329 1.14442 -98.3809 19.6946 30.0516 6.36111e-015 9.54166e-015 6.36111e-015 -23.6998 78.9301 25.4189 -7.23787e-006 -3.2297e-007 3 -8.03011 -4.95139 -0.697647 -26.8159 66.631 -159.707 -180 7.01655e-015 179.611 -169.388 72.4089 170.581 -3.87951e-006 -1.63168e-006 1.12602 -19.6208 70.2171 21.5149 8.12889 25.2332 -3.48435 -4.89071 68.6218 -172.593 4.54188e-006 -4.6773e-006 -0.589701 -12.0514 -82.7076 -9.71263 3.07229e-007 -1.92166e-007 -1.68327 24.2456 73.7302 -25.8982 -8.31393 30.0416 1.91455 
49.2679 61.7945 2.80122 4.83199 45.5836 -6.85503 0.906122 1.16406 0.0596562 1.81962 6.33096 -0.0124782 1.82382 7.97558 -0.0430956 -9.4442 27.0499 -3.06558 13.1517 3.47484 -6.48695 35.69 -5.44171 -1.73733 141.02 14.332 -46.8161 -1.56411e-006 3.4946e-007 8.63932e-006 85.7667 85.3734 -88.2422 -7.60269e-006 -8.88278e-007 -3 8.0289 -4.95145 0.697695 -67.7525 -0.261411 1.14431 -98.4105 19.6833 30.095 0 0 -0 -23.6565 79.0018 25.4182 -7.23787e-006 -3.2297e-007 3 -8.03011 -4.95139 -0.697647 -26.6855 66.5692 -159.832 -180 7.01655e-015 179.612 -169.42 72.4258 170.601 -3.87951e-006 -1.63168e-006 1.12285 -19.5704 70.1599 21.4581 8.12889 25.2332 -3.48435 -4.85411 68.5451 -172.635 4.54188e-006 -4.6773e-006 -0.589644 -12.1207 -82.7249 -9.77719 3.07229e-007 -1.92166e-007 -1.68107 24.2027 73.6987 -25.851 -8.31356 30.0222 1.91857 
49.2818 61.763 2.74294 4.83634 45.5836 -6.85215 0.905929 1.16266 0.0596444 1.81927 6.32804 -0.0112997 1.82346 7.97265 -0.0418779 -9.4384 27.0285 -3.04144 13.093 3.35086 -6.4474 35.7177 -5.42771 -1.72624 140.995 14.3554 -46.8627 -1.56411e-006 3.4946e-007 8.63932e-006 85.6497 85.3909 -88.139 -7.60269e-006 -8.88278e-007 -3 8.0289 -4.95145 0.697695 -67.7168 -0.270042 1.1448 -98.4425 19.6719 30.1389 6.36111e-015 -6.36111e-015 -9.54166e-015 -23.615 79.0741 25.4192 -7.23787e-006 -3.2297e-007 3 -8.03011 -4.95139 -0.697647 -26.5552 66.5083 -159.956 -180 7.01655e-015 179.612 -169.458 72.4426 170.626 -3.87951e-006 -1.63168e-006 1.1197 -19.5209 70.1023 21.4013 8.12889 25.2332 -3.48435 -4.81856 68.4688 -172.675 4.54188e-006 -4.6773e-006 -0.589607 -12.1864 -82.7432 -9.83861 3.07229e-007 -1.92166e-007 -1.67894 24.1598 73.6671 -25.8039 -8.31315 30.0026 1.92225 
49.287 61.6664 2.71764 4.83961 45.5824 -6.84935 0.905742 1.16134 0.0595534 1.81893 6.32532 -0.0102672 1.82311 7.96993 -0.0408066 -9.43138 27.0063 -3.01728 13.0341 3.22714 -6.4073 35.7468 -5.41347 -1.71504 140.969 14.3799 -46.9104 -1.56411e-006 3.4946e-007 8.63932e-006 85.5224 85.4084 -88.0255 -7.60269e-006 -8.88278e-007 -3 8.0289 -4.95145 0.697695 -67.68 -0.280002 1.14587 -98.4765 19.6605 30.1832 -3.18055e-015 0 9.54166e-015 -23.5749 79.1468 25.4218 -7.23787e-006 -3.2297e-007 3 -8.03011 -4.95139 -0.697647 -26.4255 66.4481 -160.077 -180 7.01655e-015 179.612 -169.499 72.4594 170.654 -3.87951e-006 -1.63168e-006 1.11656 -19.4721 70.0444 21.3447 8.12889 25.2332 -3.48435 -4.78412 68.393 -172.714 4.54188e-006 -4.6773e-006 -0.589586 -12.2484 -82.7623 -9.89702 3.07229e-007 -1.92166e-007 -1.67688 24.117 73.6354 -25.7569 -8.3127 29.9829 1.92566 
49.2919 61.6268 2.65936 4.84193 45.5798 -6.84668 0.905596 1.16016 0.0594058 1.81867 6.32285 -0.00937323 1.82285 7.96746 -0.0398762 -9.42442 26.9828 -2.99282 12.9763 3.10445 -6.36686 35.7762 -5.39961 -1.70422 140.943 14.4054 -46.9595 -1.56411e-006 3.4946e-007 8.63932e-006 85.3818 85.4256 -87.8984 -7.60269e-006 -8.88278e-007 -3 8.0289 -4.95145 0.697695 -67.6428 -0.291069 1.14747 -98.5119 19.6494 30.2277 1.27222e-014 -6.36111e-015 -6.36111e-015 -23.5359 79.2198 25.4253 -7.23787e-006 -3.2297e-007 3 -8.03011 -4.95139 -0.697647 -26.2975 66.3887 -160.196 -180 7.01655e-015 179.612 -169.543 72.4765 170.683 -3.87951e-006 -1.63168e-006 1.11344 -19.4238 69.9864 21.2883 8.12889 25.2332 -3.48435 -4.75088 68.318 -172.752 4.54188e-006 -4.6773e-006 -0.589577 -12.3072 -82.7823 -9.95257 3.07229e-007 -1.92166e-007 -1.67491 24.0742 73.6037 -25.7099 -8.31223 29.963 1.92883 
49.3065 61.6352 2.58589 4.84344 45.5759 -6.84422 0.905527 1.15913 0.0592237 1.81855 6.32071 -0.00861024 1.82272 7.96531 -0.0390811 -9.4188 26.9573 -2.96773 12.9209 2.98356 -6.3263 35.805 -5.38674 -1.69431 140.917 14.4319 -47.0105 -1.56411e-006 3.4946e-007 8.63932e-006 85.2251 85.4423 -87.7546 -7.60269e-006 -8.88278e-007 -3 8.0289 -4.95145 0.697695 -67.6058 -0.303022 1.14956 -98.5481 19.6386 30.2723 -1.41245e-030 -1.27222e-014 -6.36111e-015 -23.4973 79.293 25.4294 -7.23787e-006 -3.2297e-007 3 -8.03011 -4.95139 -0.697647 -26.1718 66.33 -160.312 -180 7.01655e-015 179.613 -169.587 72.494 170.713 -3.87951e-006 -1.63168e-006 1.11033 -19.3758 69.9285 21.2324 8.12889 25.2332 -3.48435 -4.71884 68.2437 -172.788 4.54188e-006 -4.6773e-006 -0.589576 -12.3627 -82.8029 -10.0054 3.07229e-007 -1.92166e-007 -1.67302 24.0316 73.572 -25.6631 -8.31173 29.9429 1.93183 
49.3192 61.5595 2.54481 4.84429 45.5704 -6.84203 0.90557 1.15829 0.0590296 1.81864 6.31895 -0.00797076 1.82282 7.96355 -0.0384158 -9.4158 26.9291 -2.94172 12.8689 2.86526 -6.28581 35.8324 -5.37547 -1.6858 140.894 14.4594 -47.0638 -1.56411e-006 3.4946e-007 8.63932e-006 85.049 85.4584 -87.5907 -7.60269e-006 -8.88278e-007 -3 8.0289 -4.95145 0.697695 -67.5698 -0.31564 1.15209 -98.5847 19.6282 30.317 -6.36111e-015 -6.36111e-015 -3.18055e-015 -23.4589 79.3661 25.4336 -7.23787e-006 -3.2297e-007 3 -8.03011 -4.95139 -0.697647 -26.0495 66.2719 -160.425 -180 7.01655e-015 179.613 -169.629 72.512 170.742 -3.87951e-006 -1.63168e-006 1.10726 -19.3279 69.8708 21.177 8.12889 25.2332 -3.48435 -4.6881 68.1704 -172.822 4.54188e-006 -4.6773e-006 -0.58958 -12.4153 -82.8242 -10.0556 3.07229e-007 -1.92166e-007 -1.67122 23.9891 73.5402 -25.6165 -8.31121 29.9227 1.93471 
49.329 61.5429 2.48089 4.84459 45.5633 -6.8402 0.905762 1.15768 0.0588458 1.81901 6.31765 -0.00744731 1.82319 7.96225 -0.0378747 -9.41668 26.8974 -2.91448 12.8218 2.75032 -6.24562 35.8574 -5.36643 -1.67922 140.873 14.4879 -47.1198 -1.56411e-006 3.4946e-007 8.63932e-006 84.8508 85.4735 -87.4036 -7.60269e-006 -8.88278e-007 -3 8.0289 -4.95145 0.697695 -67.5352 -0.328702 1.15503 -98.6211 19.6185 30.3616 9.54166e-015 -3.18055e-015 -9.54166e-015 -23.4201 79.4391 25.4374 -7.23787e-006 -3.2297e-007 3 -8.03011 -4.95139 -0.697647 -25.9311 66.2145 -160.534 -180 7.01655e-015 179.613 -169.668 72.5307 170.768 -3.87951e-006 -1.63168e-006 1.10421 -19.2798 69.8135 21.1223 8.12889 25.2332 -3.48435 -4.6587 68.098 -172.856 4.54188e-006 -4.6773e-006 -0.589584 -12.465 -82.8461 -10.1034 3.07229e-007 -1.92166e-007 -1.66951 23.9467 73.5083 -25.5699 -8.31069 29.9022 1.93751 
49.3394 61.4973 2.42852 4.8445 45.5544 -6.83877 0.906138 1.15732 0.0586946 1.81973 6.31686 -0.0070324 1.82391 7.96146 -0.0374524 -9.42273 26.8617 -2.88571 12.7806 2.63951 -6.20593 35.8791 -5.36022 -1.67508 140.855 14.5173 -47.1788 -1.56411e-006 3.4946e-007 8.63932e-006 84.6274 85.4875 -87.1902 -7.60269e-006 -8.88278e-007 -3 8.0289 -4.95145 0.697695 -67.5029 -0.341987 1.15834 -98.6567 19.6095 30.4061 6.36111e-015 -3.18055e-015 -3.18055e-015 -23.3806 79.5119 25.4403 -7.23787e-006 -3.2297e-007 3 -8.03011 -4.95139 -0.697647 -25.8177 66.1578 -160.639 -180 7.01655e-015 179.613 -169.703 72.5502 170.79 -3.87951e-006 -1.63168e-006 1.10119 -19.2314 69.7567 21.0683 8.12889 25.2332 -3.48435 -4.63069 68.0268 -172.887 4.54188e-006 -4.6773e-006 -0.589585 -12.512 -82.8685 -10.1488 3.07229e-007 -1.92166e-007 -1.6679 23.9045 73.4765 -25.5235 -8.31015 29.8817 1.94029 
